<?xml version="1.0" standalone="no"?>
<!DOCTYPE svg PUBLIC "-//W3C//DTD SVG 20010904//EN"
 "http://www.w3.org/TR/2001/REC-SVG-20010904/DTD/svg10.dtd">
<svg version="1.0" xmlns="http://www.w3.org/2000/svg"
 width="225.000000pt" height="225.000000pt" viewBox="0 0 225.000000 225.000000"
 preserveAspectRatio="xMidYMid meet">
<metadata>
Created by potrace 1.14, written by Peter Selinger 2001-2017
</metadata>
<g transform="translate(0.000000,225.000000) scale(0.100000,-0.100000)"
fill="#000000" stroke="none">
<path d="M0 1125 l0 -1125 1125 0 1125 0 0 1125 0 1125 -1125 0 -1125 0 0
-1125z m860 135 l0 -160 250 0 250 0 0 110 0 110 55 0 55 0 0 -165 0 -165
-360 0 -360 0 0 215 0 215 55 0 55 0 0 -160z m-510 -485 l0 -115 55 0 55 0 0
-35 0 -35 -100 0 -100 0 0 150 0 150 45 0 45 0 0 -115z m292 51 c16 -9 30 -11
33 -5 4 5 24 9 46 9 l39 0 0 -120 0 -120 -45 0 c-25 0 -45 4 -45 9 0 5 -14 3
-30 -6 -57 -28 -132 11 -150 77 -18 66 7 126 63 154 40 19 55 20 89 2z m-112
-428 l0 -103 -50 -2 c-41 -2 -52 2 -65 20 -39 56 11 146 65 117 18 -10 20 -8
20 30 0 29 4 40 15 40 12 0 15 -18 15 -102z"/>
</g>
</svg>
